<svg version="1.1" xmlns="http://www.w3.org/2000/svg" viewBox="-271.2 -1045.7 3901.4 1390.9"><desc>Created with Snap</desc><defs><linearGradient x1="-271.2" y1="-1045.7" x2="3630.2000000000003" y2="-1045.7" gradientUnits="userSpaceOnUse" id="linearGradientSl24l864j6yu"><stop offset="0%" stop-color="#6252a2"></stop><stop offset="100%" stop-color="#2fbdb6"></stop></linearGradient></defs><g><rect x="-271.2" y="-1045.7" width="3901.4" height="1390.9" fill="url('#linearGradientSl24l864j6yu')"></rect><g><g transform="matrix(1,0,0,-1,0,0)"><path d="M381 644Q375 643 372 646Q369 649 365 649Q355 646 349 650Q346 652 343 651Q340 650 337 650Q332 650 329 653Q326 656 322 657Q317 656 312 656Q307 656 302 656Q293 656 287 653Q281 651 278 651Q267 653 266 652Q265 651 263 650Q257 646 247 647Q237 648 230 646Q229 646 223 643Q218 640 212 636Q206 632 200 628Q194 625 193 624Q191 617 188 611Q186 606 184 599Q167 586 160 579Q154 573 152 558Q144 545 142 538Q140 531 140 523Q140 517 143 512Q146 508 146 502Q153 495 151 493Q149 492 158 488Q164 486 164 478Q175 471 177 466Q180 462 188 460Q190 456 191 453Q193 450 195 447Q202 445 207 442Q212 439 217 437Q222 435 227 434Q233 434 241 437Q246 429 254 426Q263 426 277 426Q292 426 307 427Q323 428 336 430Q350 432 356 437Q362 435 366 431Q371 428 376 424Q383 426 389 423Q396 421 402 418Q408 415 414 413Q421 412 430 415Q433 411 436 407Q439 403 443 400Q454 398 465 395Q476 392 484 382L500 382Q502 374 508 373Q515 372 520 367Q524 367 525 365Q526 363 527 361Q528 360 529 359Q531 358 536 359Q540 347 552 343Q559 327 567 323Q565 315 571 307Q578 299 578 288Q582 283 584 277Q586 271 591 266Q588 255 589 245Q591 236 594 227Q597 218 600 209Q604 200 604 191Q604 187 603 184Q602 181 601 178Q601 176 603 173Q606 170 606 167Q606 160 603 157Q600 155 602 147Q595 142 592 137Q590 132 591 124Q586 123 585 120Q585 118 580 117Q581 107 576 100Q571 94 571 85Q571 80 567 79Q563 79 560 77Q559 72 555 62Q549 62 548 60Q548 59 546 57Q528 46 519 36Q511 27 492 22Q487 21 485 17Q483 14 479 12L467 12Q462 7 458 4Q455 1 453 -5Q434 -13 419 -25Q409 -24 398 -28Q388 -31 380 -27Q375 -29 359 -34Q343 -38 338 -38Q332 -38 331 -35Q331 -31 323 -31Q317 -31 311 -34Q306 -36 300 -36Q289 -36 279 -32Q269 -27 258 -34Q250 -31 243 -28Q237 -25 229 -23Q226 -22 222 -22Q219 -22 216 -21Q205 -18 200 -15Q196 -12 184 -12Q167 -12 153 -5Q139 3 123 5Q117 16 105 21Q104 26 101 28Q98 30 95 32Q90 36 86 41Q83 46 80 51Q74 53 69 57Q64 62 59 67Q60 76 58 79Q57 83 51 91L51 108Q46 115 41 122Q36 129 36 138Q36 150 43 161Q50 172 55 183Q63 184 67 184Q72 185 76 184Q81 183 85 183Q89 183 91 189Q97 182 102 175Q108 168 116 164Q116 152 121 146Q126 140 129 129Q131 122 137 120Q143 118 142 107Q145 105 149 103Q153 101 157 99Q157 94 158 91Q159 89 161 84Q168 77 177 74Q187 71 194 64Q200 64 204 62Q209 61 214 64Q222 61 227 59Q233 58 241 58Q246 58 248 54Q250 51 252 51Q260 51 262 56Q272 54 279 50Q287 47 298 47Q306 47 315 48Q324 49 332 49Q339 49 345 48Q352 47 358 47Q362 47 375 51Q389 55 394 57Q404 60 406 66L417 66Q426 77 439 81Q452 86 463 94Q465 94 469 94Q473 94 475 96Q481 98 483 104Q486 111 488 116Q493 114 494 117Q495 121 501 120Q503 125 501 130Q511 133 513 141Q516 149 521 157Q519 162 520 166Q521 171 521 176Q519 184 520 186Q521 189 521 191Q521 197 519 207Q517 217 513 228Q510 239 505 248Q501 258 497 263Q498 274 493 277Q489 281 487 290Q485 291 480 293Q476 296 470 299Q465 302 461 305Q457 308 456 309Q445 316 435 315Q425 314 417 324Q415 324 410 321Q406 319 401 319Q400 323 398 325Q397 327 395 330Q381 332 367 339Q354 346 340 346Q335 346 330 343Q325 341 320 341Q316 341 313 342Q310 343 307 343Q302 343 298 342Q294 341 290 341Q283 341 277 343Q271 345 264 345Q261 345 258 344Q255 343 252 343Q243 343 236 346Q230 350 217 349Q212 349 209 352Q206 356 197 356Q192 356 186 357Q181 358 177 362Q165 360 160 363Q156 366 151 370Q146 375 141 379Q137 384 136 386Q132 385 131 387Q130 389 125 388Q119 398 110 406Q101 415 96 426Q93 430 83 434Q83 438 81 441Q80 444 81 448Q64 462 64 480Q61 485 59 488Q58 492 53 495Q55 503 57 513Q60 524 52 530Q61 541 61 553Q62 566 70 577Q71 582 72 587Q73 592 72 597Q77 598 83 607Q89 616 90 621Q100 623 104 631Q108 639 116 644Q118 654 124 661Q130 668 135 676Q140 687 145 695Q151 704 162 710Q170 709 179 712Q188 716 193 714Q196 716 198 719Q201 722 205 723Q216 730 219 729Q222 729 228 729Q245 729 251 733Q258 738 266 738Q270 738 274 736Q278 735 282 735Q290 735 302 736Q314 738 326 738Q339 739 350 738Q361 738 368 734Q373 731 378 732Q384 733 389 731Q394 729 396 725Q398 721 402 718Q407 718 417 716Q427 714 437 711Q448 708 457 705Q467 702 471 699Q476 700 481 698Q486 696 491 697Q493 690 499 689Q505 689 507 681Q509 680 513 678Q517 676 521 673Q526 671 530 669Q534 668 535 668Q538 668 541 669Q544 671 547 671Q550 660 555 650Q560 641 565 632Q563 624 562 617Q561 610 560 602Q553 599 546 595Q540 592 532 592Q526 592 521 594Q516 597 510 597Q505 597 501 595Q498 594 493 595Q476 604 469 616Q462 615 459 617Q457 620 453 625Q449 623 448 622Q447 621 442 623Q440 628 433 631Q426 634 421 634Q418 634 415 632Q413 631 410 631Q405 631 400 634Q395 637 392 637Q382 635 382 638Q382 641 381 644ZM1320 71Q1319 66 1311 63Q1303 61 1298 56Q1298 50 1295 47Q1292 45 1293 37Q1288 35 1283 28Q1278 21 1273 21Q1266 21 1261 24Q1257 28 1248 26Q1240 41 1226 47Q1219 60 1212 72Q1205 84 1199 97Q1184 110 1175 114Q1166 119 1158 117Q1151 116 1142 110Q1134 104 1119 95Q1109 95 1091 95Q1074 95 1066 99Q1063 100 1060 101Q1058 103 1055 103Q1051 103 1047 101Q1044 100 1040 100Q1036 100 1033 101Q1030 102 1026 103Q1022 103 1019 102Q1017 102 1014 103Q1008 100 1005 97Q1003 95 999 95Q985 100 969 102Q954 104 940 112Q932 114 931 109Q930 105 925 105Q914 106 905 104Q896 103 885 103Q880 103 874 104Q869 105 864 105Q858 105 853 102Q848 100 843 100Q839 100 836 101Q833 103 828 103Q823 103 819 100Q816 98 812 98Q807 98 803 98Q799 99 795 99Q786 99 782 95Q778 92 776 86Q775 81 774 75Q773 70 768 66Q770 51 767 42Q764 33 755 21Q742 20 730 17Q718 15 705 15Q697 15 694 20Q691 25 686 30Q679 36 675 42Q672 48 667 56Q668 60 671 62Q675 65 678 67Q676 73 677 77Q679 81 682 85Q685 89 687 93Q690 98 690 103Q690 109 690 111Q691 113 692 114Q693 115 694 116Q695 117 697 121Q699 125 698 128Q697 132 699 136Q703 145 708 152Q714 160 719 168Q721 173 722 177Q724 181 726 185Q729 193 737 200L737 213Q740 217 742 220Q744 223 749 225Q748 237 755 245Q762 254 764 265Q778 273 787 287Q797 302 794 319Q802 322 806 330Q810 338 818 341Q818 349 820 355Q823 361 823 369Q832 374 835 382Q839 391 843 399Q844 401 847 406Q850 412 853 418Q856 424 858 428Q861 433 861 435Q879 465 882 491Q888 497 890 499Q893 502 894 504Q895 507 895 510Q895 514 897 521Q900 520 902 523Q905 527 908 532Q912 537 917 541Q923 546 932 546Q942 546 951 544Q960 542 970 541Q975 535 980 530Q986 525 991 518L991 506Q999 496 1006 485Q1014 475 1026 470Q1025 459 1030 457Q1036 456 1043 451Q1042 442 1044 437Q1047 433 1050 427Q1054 422 1057 417Q1060 413 1061 411Q1066 402 1073 402Q1072 397 1076 395Q1080 394 1078 387Q1087 378 1100 373Q1100 366 1105 360Q1110 355 1115 352Q1116 347 1119 345Q1122 343 1125 341Q1130 338 1132 333Q1135 328 1140 326Q1141 317 1150 305Q1159 294 1169 282Q1179 271 1187 261Q1195 252 1194 247Q1202 242 1209 236Q1217 231 1227 227Q1227 219 1226 215Q1226 212 1227 209Q1228 207 1231 205Q1234 203 1241 198Q1240 193 1245 186Q1247 182 1248 177Q1249 173 1252 168Q1257 160 1265 155Q1274 151 1281 145Q1286 134 1289 123Q1292 112 1296 101Q1303 94 1311 91Q1312 86 1313 80Q1315 74 1320 71ZM1088 259Q1082 260 1079 263Q1076 267 1071 268Q1072 281 1066 282Q1060 283 1053 290Q1053 295 1049 296Q1045 298 1043 302Q1039 313 1038 314Q1037 316 1032 319Q1028 321 1028 324Q1028 327 1020 331Q1016 333 1012 334Q1008 335 1006 339Q1000 350 991 362Q983 375 981 389Q971 395 966 403Q962 411 948 413Q940 403 937 391Q934 380 924 372L924 359Q919 353 913 346Q908 339 909 331Q901 329 901 323Q901 317 897 312Q895 309 892 308Q890 307 890 302Q885 292 883 286Q881 280 878 275Q867 270 869 266Q871 262 868 255Q864 248 858 245Q853 243 855 232Q844 222 836 209Q829 197 831 182Q841 183 851 182Q861 181 871 181Q882 181 891 185Q901 189 912 189Q925 189 938 182Q951 176 963 182Q968 180 971 178Q974 176 979 174Q1012 168 1046 179Q1056 175 1061 174Q1064 176 1072 177Q1080 178 1088 179Q1097 180 1103 182Q1110 184 1109 187Q1116 191 1120 191Q1125 191 1125 202Q1125 208 1120 215Q1115 222 1108 229Q1101 237 1095 244Q1089 252 1088 259ZM2076 28Q2075 25 2072 23Q2069 21 2067 19Q2065 17 2064 14Q2063 11 2066 7Q2064 2 2053 1Q2042 1 2036 -6Q2032 -8 2028 -7Q2025 -5 2021 -8Q2012 -3 2005 4Q1999 12 1988 15Q1987 22 1982 26Q1977 30 1977 36Q1978 49 1975 50Q1972 52 1970 57Q1968 60 1968 63Q1968 67 1964 68Q1966 73 1968 78Q1971 83 1973 88Q1968 99 1960 109Q1952 119 1952 132Q1952 137 1952 141Q1953 145 1953 150Q1953 154 1951 157Q1950 160 1953 164Q1951 170 1948 175Q1946 181 1944 187Q1947 188 1948 194Q1949 201 1948 208Q1947 216 1946 223Q1945 231 1945 234Q1945 238 1946 242Q1947 246 1947 250Q1951 267 1947 279Q1943 291 1943 300Q1943 314 1944 327Q1945 340 1936 354Q1921 347 1918 333L1907 333Q1904 330 1904 328Q1904 327 1905 323Q1901 322 1900 319Q1899 316 1898 313Q1897 310 1893 304Q1889 299 1884 293Q1880 287 1875 281Q1871 275 1869 272Q1868 266 1866 260Q1865 255 1866 249L1854 249Q1851 238 1851 228Q1840 206 1835 193Q1830 180 1819 168Q1821 162 1819 160Q1817 158 1817 153Q1809 145 1804 139Q1799 133 1797 122Q1792 120 1790 116Q1789 113 1787 109Q1786 106 1783 103Q1781 100 1775 99Q1780 92 1779 86Q1779 81 1782 75Q1782 71 1778 70Q1774 70 1772 64Q1770 59 1770 54Q1771 49 1770 44Q1768 39 1767 38Q1767 38 1766 37Q1765 36 1765 33Q1765 31 1765 23Q1757 21 1760 13Q1755 15 1754 11Q1753 8 1754 4Q1749 5 1744 4Q1739 4 1736 -1Q1732 2 1727 0Q1723 -1 1718 -1Q1712 5 1706 4Q1700 3 1692 3Q1687 14 1680 21Q1673 28 1671 42Q1666 47 1663 53Q1661 59 1656 64Q1656 75 1652 85Q1648 96 1638 102Q1637 111 1633 118Q1629 126 1624 133Q1624 140 1621 145Q1619 151 1616 155Q1613 160 1610 165Q1607 170 1606 176Q1602 178 1599 181Q1597 185 1592 187Q1591 192 1589 195Q1588 199 1586 203Q1575 213 1569 226Q1563 239 1552 248Q1553 251 1551 253Q1550 255 1549 258Q1533 271 1524 289Q1516 308 1503 317Q1493 329 1488 336Q1484 343 1476 348Q1468 349 1468 345Q1468 341 1470 336Q1470 333 1469 330Q1468 327 1468 324Q1468 321 1469 318Q1470 316 1470 313Q1470 296 1467 279Q1465 263 1465 246Q1465 244 1466 241Q1467 238 1467 235Q1467 231 1465 228Q1464 225 1464 220Q1464 211 1465 201Q1467 192 1468 183Q1472 181 1473 178Q1475 175 1477 172Q1476 165 1476 158Q1477 151 1480 145Q1478 141 1476 138Q1474 135 1478 131Q1478 126 1481 124Q1484 122 1487 120Q1490 119 1492 117Q1495 115 1495 110Q1495 104 1490 100Q1486 97 1482 93Q1489 77 1490 61Q1487 59 1484 57Q1481 56 1479 52Q1469 41 1471 39Q1474 38 1473 35Q1462 30 1454 21Q1446 13 1434 11Q1427 17 1421 20Q1416 23 1406 21Q1402 24 1401 27Q1400 31 1394 31Q1394 39 1390 42Q1387 45 1384 51Q1386 61 1383 70Q1381 80 1381 90Q1381 100 1382 109Q1384 119 1384 129Q1384 134 1382 138Q1381 142 1381 147Q1381 150 1382 153Q1384 156 1384 159Q1384 162 1382 164Q1380 167 1379 170Q1377 176 1376 182Q1376 188 1376 194Q1376 199 1378 203Q1381 207 1381 212Q1381 221 1379 230Q1378 240 1378 250Q1378 257 1381 261Q1384 266 1384 271Q1384 279 1382 287Q1381 295 1379 303Q1381 319 1381 323Q1381 328 1382 330Q1384 333 1385 335Q1387 337 1387 342Q1387 347 1385 352Q1384 358 1384 363Q1384 375 1386 386Q1389 398 1389 410Q1389 415 1387 418Q1385 421 1384 425Q1387 427 1386 431Q1385 436 1385 439Q1387 452 1384 452Q1381 453 1379 455Q1381 465 1385 470Q1389 476 1390 490Q1390 497 1389 504Q1389 512 1393 519Q1402 521 1405 528Q1408 536 1410 544Q1417 543 1422 550Q1426 549 1431 550Q1437 552 1444 553Q1451 554 1460 552Q1469 551 1480 545L1480 533Q1489 526 1491 513Q1494 501 1498 491Q1500 486 1504 477Q1509 468 1514 459Q1520 450 1526 442Q1532 435 1537 433Q1537 428 1539 423Q1542 419 1542 414Q1545 410 1547 405Q1549 401 1554 398Q1554 388 1559 383Q1565 378 1567 369Q1570 367 1573 366Q1577 366 1580 364Q1584 354 1592 348Q1600 342 1607 334Q1614 325 1620 315Q1626 306 1636 300Q1636 292 1638 285Q1641 279 1649 277Q1647 270 1652 267Q1658 265 1661 260Q1659 253 1662 254Q1665 255 1665 250Q1673 242 1673 238Q1674 235 1676 233Q1680 228 1683 223Q1686 219 1689 214Q1693 210 1696 205Q1699 201 1700 201Q1698 189 1703 181Q1708 173 1715 171Q1722 170 1728 177Q1735 185 1737 205Q1748 210 1749 220Q1750 230 1752 240Q1757 244 1759 249Q1762 254 1767 257Q1769 262 1768 263Q1767 264 1765 268Q1769 269 1769 272Q1770 276 1770 279Q1776 280 1775 284Q1775 288 1783 289Q1781 297 1783 299Q1785 302 1785 309Q1789 311 1788 312Q1788 314 1795 312Q1794 315 1794 320Q1795 325 1792 327Q1794 329 1798 328Q1802 328 1804 328Q1805 339 1811 345Q1818 352 1819 363Q1835 371 1840 380Q1845 390 1854 396Q1853 402 1854 405Q1856 409 1858 411Q1860 414 1862 417Q1864 420 1864 425Q1872 427 1874 434Q1876 442 1884 446Q1882 452 1886 464Q1890 477 1898 477Q1899 491 1905 499Q1911 507 1913 519Q1919 519 1925 522Q1927 530 1933 533Q1939 537 1942 544Q1959 546 1966 552Q1973 559 1983 554Q1987 549 1988 547Q1989 545 1987 539L2000 539Q2002 534 2002 531Q2003 529 2002 524Q2004 520 2007 518Q2011 516 2012 514Q2010 503 2013 491Q2016 479 2011 468Q2018 466 2016 458Q2015 450 2021 446Q2019 443 2018 440Q2017 438 2016 435Q2021 434 2021 432Q2021 431 2020 428Q2020 426 2020 422Q2021 418 2027 411Q2027 409 2024 408Q2022 407 2022 402Q2024 400 2025 397Q2027 394 2029 392Q2024 381 2028 375Q2032 369 2032 362Q2029 348 2031 344Q2034 340 2026 337Q2029 327 2031 316Q2034 306 2034 295Q2034 290 2033 284Q2032 279 2032 274Q2032 269 2034 266Q2037 263 2037 261Q2037 258 2035 257Q2033 256 2035 251Q2035 240 2031 231Q2028 223 2036 214Q2033 207 2035 200Q2037 193 2037 185Q2040 183 2041 180Q2043 178 2045 176Q2041 170 2044 165Q2047 160 2047 154Q2044 152 2044 146Q2045 141 2047 135Q2050 129 2053 123Q2056 117 2057 114Q2056 100 2062 97Q2063 93 2063 89Q2063 85 2068 83Q2066 76 2069 72Q2072 68 2076 63Q2077 46 2074 40Q2071 35 2076 28ZM2775 71Q2774 66 2766 63Q2758 61 2753 56Q2753 50 2750 47Q2747 45 2748 37Q2743 35 2738 28Q2733 21 2728 21Q2721 21 2716 24Q2712 28 2703 26Q2695 41 2681 47Q2674 60 2667 72Q2660 84 2654 97Q2639 110 2630 114Q2621 119 2613 117Q2606 116 2597 110Q2589 104 2574 95Q2564 95 2546 95Q2529 95 2521 99Q2518 100 2515 101Q2513 103 2510 103Q2506 103 2502 101Q2499 100 2495 100Q2491 100 2488 101Q2485 102 2481 103Q2477 103 2474 102Q2472 102 2469 103Q2463 100 2460 97Q2458 95 2454 95Q2440 100 2424 102Q2409 104 2395 112Q2387 114 2386 109Q2385 105 2380 105Q2369 106 2360 104Q2351 103 2340 103Q2335 103 2329 104Q2324 105 2319 105Q2313 105 2308 102Q2303 100 2298 100Q2294 100 2291 101Q2288 103 2283 103Q2278 103 2274 100Q2271 98 2267 98Q2262 98 2258 98Q2254 99 2250 99Q2241 99 2237 95Q2233 92 2231 86Q2230 81 2229 75Q2228 70 2223 66Q2225 51 2222 42Q2219 33 2210 21Q2197 20 2185 17Q2173 15 2160 15Q2152 15 2149 20Q2146 25 2141 30Q2134 36 2130 42Q2127 48 2122 56Q2123 60 2126 62Q2130 65 2133 67Q2131 73 2132 77Q2134 81 2137 85Q2140 89 2142 93Q2145 98 2145 103Q2145 109 2145 111Q2146 113 2147 114Q2148 115 2149 116Q2150 117 2152 121Q2154 125 2153 128Q2152 132 2154 136Q2158 145 2163 152Q2169 160 2174 168Q2176 173 2177 177Q2179 181 2181 185Q2184 193 2192 200L2192 213Q2195 217 2197 220Q2199 223 2204 225Q2203 237 2210 245Q2217 254 2219 265Q2233 273 2242 287Q2252 302 2249 319Q2257 322 2261 330Q2265 338 2273 341Q2273 349 2275 355Q2278 361 2278 369Q2287 374 2290 382Q2294 391 2298 399Q2299 401 2302 406Q2305 412 2308 418Q2311 424 2313 428Q2316 433 2316 435Q2334 465 2337 491Q2343 497 2345 499Q2348 502 2349 504Q2350 507 2350 510Q2350 514 2352 521Q2355 520 2357 523Q2360 527 2363 532Q2367 537 2372 541Q2378 546 2387 546Q2397 546 2406 544Q2415 542 2425 541Q2430 535 2435 530Q2441 525 2446 518L2446 506Q2454 496 2461 485Q2469 475 2481 470Q2480 459 2485 457Q2491 456 2498 451Q2497 442 2499 437Q2502 433 2505 427Q2509 422 2512 417Q2515 413 2516 411Q2521 402 2528 402Q2527 397 2531 395Q2535 394 2533 387Q2542 378 2555 373Q2555 366 2560 360Q2565 355 2570 352Q2571 347 2574 345Q2577 343 2580 341Q2585 338 2587 333Q2590 328 2595 326Q2596 317 2605 305Q2614 294 2624 282Q2634 271 2642 261Q2650 252 2649 247Q2657 242 2664 236Q2672 231 2682 227Q2682 219 2681 215Q2681 212 2682 209Q2683 207 2686 205Q2689 203 2696 198Q2695 193 2700 186Q2702 182 2703 177Q2704 173 2707 168Q2712 160 2720 155Q2729 151 2736 145Q2741 134 2744 123Q2747 112 2751 101Q2758 94 2766 91Q2767 86 2768 80Q2770 74 2775 71ZM2543 259Q2537 260 2534 263Q2531 267 2526 268Q2527 281 2521 282Q2515 283 2508 290Q2508 295 2504 296Q2500 298 2498 302Q2494 313 2493 314Q2492 316 2487 319Q2483 321 2483 324Q2483 327 2475 331Q2471 333 2467 334Q2463 335 2461 339Q2455 350 2446 362Q2438 375 2436 389Q2426 395 2421 403Q2417 411 2403 413Q2395 403 2392 391Q2389 380 2379 372L2379 359Q2374 353 2368 346Q2363 339 2364 331Q2356 329 2356 323Q2356 317 2352 312Q2350 309 2347 308Q2345 307 2345 302Q2340 292 2338 286Q2336 280 2333 275Q2322 270 2324 266Q2326 262 2323 255Q2319 248 2313 245Q2308 243 2310 232Q2299 222 2291 209Q2284 197 2286 182Q2296 183 2306 182Q2316 181 2326 181Q2337 181 2346 185Q2356 189 2367 189Q2380 189 2393 182Q2406 176 2418 182Q2423 180 2426 178Q2429 176 2434 174Q2467 168 2501 179Q2511 175 2516 174Q2519 176 2527 177Q2535 178 2543 179Q2552 180 2558 182Q2565 184 2564 187Q2571 191 2575 191Q2580 191 2580 202Q2580 208 2575 215Q2570 222 2563 229Q2556 237 2550 244Q2544 252 2543 259ZM3317 463L3323 463Q3315 461 3314 454Q3314 448 3314 440Q3314 433 3315 426Q3316 420 3318 418Q3310 412 3312 407Q3315 403 3317 396Q3311 386 3313 371Q3315 357 3315 346Q3315 342 3313 338Q3312 335 3312 331Q3312 325 3314 319Q3317 313 3317 306Q3317 296 3314 288Q3312 280 3315 269Q3307 260 3308 248Q3310 237 3310 226Q3310 221 3308 216Q3306 212 3305 207Q3303 199 3305 192Q3307 185 3302 177Q3307 169 3307 160Q3307 151 3307 143Q3307 135 3310 125Q3314 116 3312 109Q3318 106 3318 98Q3318 88 3315 88Q3312 89 3307 83Q3310 78 3311 74Q3313 70 3315 65Q3315 59 3310 51Q3306 44 3311 39Q3301 32 3298 20Q3294 18 3289 14Q3285 10 3281 10Q3277 10 3273 11Q3270 13 3266 13Q3256 13 3247 9Q3239 5 3228 6Q3212 8 3207 12Q3202 16 3197 21Q3192 26 3187 31Q3182 36 3176 38Q3175 41 3169 47Q3164 54 3157 60Q3151 66 3144 71Q3137 76 3134 77Q3126 85 3125 89Q3124 93 3117 93Q3118 100 3115 104Q3113 109 3110 113Q3107 118 3103 122Q3100 126 3099 132Q3089 134 3086 142Q3083 150 3072 150Q3070 157 3065 159Q3060 162 3055 164Q3054 169 3052 169Q3050 170 3052 176Q3041 184 3031 193Q3021 203 3009 211Q3007 219 3002 225Q2998 232 2990 236Q2990 240 2986 247Q2982 255 2977 263Q2972 271 2967 278Q2962 285 2959 288Q2954 293 2954 295Q2955 298 2948 303Q2943 306 2944 308Q2945 311 2942 315Q2940 320 2935 323Q2931 327 2927 331Q2922 332 2920 330Q2918 329 2917 327Q2916 325 2915 323Q2914 321 2910 321Q2911 316 2912 312Q2914 308 2914 303Q2914 298 2911 292Q2908 286 2914 284Q2910 276 2909 266Q2909 257 2914 249Q2908 248 2907 244Q2906 240 2907 234Q2909 229 2911 223Q2913 218 2913 215Q2913 210 2911 205Q2910 201 2910 196Q2910 186 2915 176Q2920 166 2926 158Q2931 152 2932 145Q2934 138 2937 132Q2933 124 2936 116Q2939 108 2940 99Q2942 96 2944 93Q2947 91 2949 87Q2944 85 2944 80Q2945 75 2943 71Q2943 64 2945 59Q2947 54 2947 49Q2948 45 2945 41Q2943 37 2935 32Q2936 20 2933 16Q2930 12 2924 3Q2916 2 2910 1Q2905 1 2899 6Q2891 6 2891 -2Q2882 3 2872 7Q2862 12 2854 17Q2854 27 2853 36Q2853 45 2853 55L2853 73Q2853 78 2851 80Q2849 83 2846 86Q2848 95 2848 108Q2849 122 2841 129Q2840 144 2839 159Q2839 174 2836 189Q2845 200 2840 214Q2836 229 2836 242Q2836 245 2837 248Q2839 251 2839 254Q2839 270 2836 285Q2834 300 2834 316Q2834 323 2836 330Q2839 337 2839 345Q2839 354 2838 363Q2837 373 2835 382Q2834 385 2832 390Q2831 396 2831 398Q2831 403 2832 406Q2834 410 2836 415Q2829 441 2827 468Q2826 495 2826 521Q2830 525 2835 529Q2840 534 2845 538Q2851 543 2855 547Q2860 551 2861 551Q2864 552 2869 551Q2875 551 2880 549Q2886 548 2891 546Q2896 545 2897 543Q2899 540 2900 537Q2902 534 2904 532Q2907 529 2911 528Q2916 528 2921 520Q2924 515 2924 513Q2924 512 2925 511Q2926 510 2928 509Q2930 508 2936 505Q2944 494 2949 479Q2955 465 2961 450Q2967 436 2974 422Q2982 409 2995 399Q2995 385 3009 376Q3009 365 3013 363Q3017 361 3022 354Q3025 341 3033 332Q3042 324 3050 314Q3052 311 3053 308Q3054 305 3059 304Q3058 298 3061 296Q3065 295 3064 290Q3076 281 3076 275Q3077 269 3087 269Q3085 265 3088 262Q3091 259 3095 256Q3100 253 3105 249Q3110 245 3112 239L3124 239Q3126 228 3135 223Q3144 218 3147 207Q3152 205 3156 201Q3161 197 3166 195Q3167 187 3171 182Q3176 177 3183 173Q3182 165 3188 157Q3194 150 3200 147Q3205 148 3204 143Q3204 139 3212 137Q3228 153 3219 176Q3224 181 3223 191Q3223 201 3223 207Q3223 216 3225 225Q3227 235 3227 244Q3227 251 3224 259Q3225 261 3227 268Q3229 275 3230 283Q3232 291 3233 298Q3234 305 3234 307Q3234 312 3231 314Q3229 316 3228 320Q3231 323 3233 326Q3236 329 3238 332Q3239 341 3235 342Q3231 343 3231 347Q3231 355 3233 363Q3236 371 3236 379Q3236 383 3234 386Q3233 390 3233 394Q3233 401 3235 407Q3238 413 3238 419Q3238 424 3235 433Q3233 443 3228 445Q3230 460 3231 475Q3232 490 3221 503Q3220 514 3219 524Q3219 535 3227 544Q3234 546 3240 548Q3247 551 3250 559Q3261 559 3271 559Q3282 560 3293 557Q3300 545 3306 534Q3312 523 3307 509Q3309 504 3312 498Q3315 492 3315 486Q3315 482 3313 479Q3312 476 3312 473Q3312 468 3313 467Q3315 466 3317 463Z" fill="#ffffff" style=""></path></g></g></g></svg>